<?xml version="1.0" encoding="utf-8"?>
<!-- Generator: Adobe Illustrator 16.0.0, SVG Export Plug-In . SVG Version: 6.00 Build 0)  -->
<!DOCTYPE svg PUBLIC "-//W3C//DTD SVG 1.1//EN" "http://www.w3.org/Graphics/SVG/1.1/DTD/svg11.dtd">
<svg version="1.1" id="图层_1" xmlns="http://www.w3.org/2000/svg" xmlns:xlink="http://www.w3.org/1999/xlink" x="0px" y="0px"
	 width="400px" height="400px" viewBox="0 0 400 400" enable-background="new 0 0 400 400" xml:space="preserve">
<path fill="#FFDFB2" stroke="#471F00" stroke-width="6" stroke-miterlimit="10" d="M340.028,218.732
	c31.53,11.768,33.504,45.791,30.985,67.366c-3.949,20.112-15.432,37.775-45.637,53.673c-51.226,25.082-139.192,33.21-203.489-1.412
	c-37.095-24.023-47.643-66.968-50.872-123.852c-3.045-48.129,2.296-104.014,33.385-139.696
	c25.502-29.269,54.582-38.795,105.454-38.795c45.792,0,74.097,13.891,100.155,39.501
	C356.14,120.858,341.805,188.215,340.028,218.732z"/>
<polyline fill="none" stroke="#000000" stroke-width="8" stroke-miterlimit="10" points="137.231,177.617 197.979,210.437 
	151.991,234.668 "/>
<path fill="#FFFFFF" stroke="#000000" stroke-width="6" stroke-miterlimit="10" d="M258.978,215.242
	c-4.083-25.417,14.724-40.677,37.248-37.26c27.554,6.626,25.089,29.663,21.557,40.261"/>
<path stroke="#000000" stroke-width="6" stroke-miterlimit="10" d="M317.782,218.243c-7.243,6.271-20.059,3.392-23.479,0.515
	c-2.2-1.852-4.943-4.675-5.923-11.048c-0.56-3.637-2.369-21.93,6.785-29.728C308.368,177.982,326.438,199.984,317.782,218.243z"/>
<path fill="#462C1D" stroke="#462C1D" stroke-width="2" stroke-miterlimit="10" d="M348.693,130.984
	C343.395,96.362,316.897,30.299,218.333,25c-54.348,0-91.995,12.13-121.881,40.274c-46.299,46.64-34.975,125.061-26.225,179.504
	c2.748,4.022,3.889,1.943,17.746,1.943c5.79-24.792,8.479-71.225,8.479-71.225l2.649,25.436l8.479-37.094l2.649,21.197
	c0,0,11.569-61.146,11.569-63.156c0,4.036,18.46,9.812,18.46,9.812s-6.705-9.836-3.028-22.691C144,127.804,180,132.043,180,132.043
	s-18.034-18.844-12.395-28.377C170.817,116,202.5,127.804,202.5,127.804s-14.084-21.565-8.832-28.138
	C223,136.129,249.938,134,233.002,96.333c0.706,16.958,37.832,31.471,37.832,31.471s-17.878-33.991-12.417-39.471
	c6.648,27.542,42.584,41.237,42.584,41.237S291.175,99.579,297.037,91c0,23.549,28.631,36.804,28.631,36.804
	s-5.313-12.977-0.477-16.958C328.371,121.643,333.667,124.667,348.693,130.984z"/>
<path fill="#FFDFB2" stroke="#42210B" stroke-width="6" stroke-miterlimit="10" d="M96.452,226.369
	c-3.886-17.663-33.915-25.083-49.135-5.295c-17.964,23.316-12.635,45.216-4.21,58.993c12.718,18.019,29.322,24.377,53.346,12.012"/>
<g>
	<path d="M61.477,235.378c0,0,0.342-0.285,0.963-0.706c0.314-0.209,0.666-0.486,1.201-0.657c0.505-0.176,1.138-0.506,1.8-0.583
		c0.669-0.108,1.422-0.277,2.21-0.224c0.397,0.002,0.808,0.019,1.228,0.046c0.411,0.06,0.828,0.147,1.257,0.229
		c0.212,0.045,0.434,0.077,0.646,0.137l0.626,0.216c0.418,0.149,0.856,0.285,1.267,0.477c0.808,0.403,1.638,0.82,2.371,1.367
		c0.764,0.51,1.43,1.136,2.079,1.751c0.315,0.317,0.596,0.663,0.878,0.997c0.29,0.327,0.553,0.669,0.775,1.035
		c0.228,0.36,0.474,0.694,0.668,1.055c0.182,0.37,0.366,0.726,0.527,1.078c0.336,0.696,0.521,1.432,0.714,2.068
		c0.115,0.684,0.238,1.281,0.236,1.84c0.002,0.558,0.004,1.023-0.07,1.413c-0.157,0.78-0.299,1.179-0.299,1.179
		s-0.211-0.418-0.489-1.067c-0.136-0.324-0.411-0.693-0.615-1.111c-0.225-0.415-0.594-0.843-0.884-1.318
		c-0.38-0.446-0.711-0.951-1.159-1.426c-0.222-0.238-0.432-0.49-0.652-0.74c-0.237-0.238-0.479-0.48-0.726-0.728
		c-0.459-0.516-1.047-0.942-1.558-1.443c-0.58-0.429-1.109-0.933-1.728-1.313c-0.568-0.459-1.209-0.776-1.802-1.173
		c-0.632-0.293-1.228-0.692-1.856-0.916c-0.31-0.13-0.619-0.251-0.919-0.394c-0.311-0.098-0.616-0.193-0.913-0.286
		c-0.598-0.239-1.185-0.301-1.744-0.442c-0.141-0.034-0.279-0.066-0.414-0.099c-0.128-0.012-0.255-0.021-0.381-0.041
		c-0.259-0.035-0.504-0.068-0.735-0.1c-0.465-0.084-0.938-0.072-1.31-0.07C61.919,235.425,61.477,235.378,61.477,235.378z"/>
</g>
<g>
	<path d="M73.225,237.701c0,0-0.246,0.198-0.676,0.545c-0.208,0.17-0.505,0.4-0.711,0.591c-0.232,0.213-0.505,0.422-0.8,0.713
		c-0.287,0.304-0.628,0.617-0.946,0.986c-0.31,0.372-0.673,0.752-0.981,1.19c-0.334,0.425-0.654,0.884-0.958,1.368
		c-0.328,0.475-0.585,0.993-0.878,1.506c-0.251,0.525-0.526,1.055-0.727,1.599c-0.236,0.538-0.389,1.085-0.568,1.62
		c-0.125,0.537-0.286,1.067-0.347,1.575c-0.099,0.512-0.126,0.995-0.155,1.452c-0.022,0.453,0.009,0.869,0.025,1.245
		c0.056,0.364,0.091,0.696,0.147,0.962c0.147,0.528,0.231,0.83,0.231,0.83s-0.171-0.269-0.472-0.738
		c-0.136-0.245-0.271-0.558-0.444-0.919c-0.132-0.369-0.296-0.794-0.419-1.271c-0.116-0.478-0.244-1.005-0.306-1.569
		c-0.1-0.567-0.106-1.164-0.146-1.795c0.012-0.62-0.001-1.278,0.073-1.933c0.039-0.665,0.156-1.324,0.258-1.997
		c0.142-0.656,0.26-1.335,0.458-1.975c0.174-0.65,0.376-1.283,0.606-1.886c0.204-0.617,0.477-1.179,0.71-1.732
		c0.241-0.548,0.521-1.041,0.757-1.515c0.251-0.471,0.543-0.911,0.779-1.3c0.254-0.417,0.428-0.657,0.585-0.894
		c0.31-0.459,0.486-0.721,0.486-0.721L73.225,237.701z"/>
</g>
<g>
	<path d="M131.78,164.898c0,0,0.345-0.08,0.992-0.23c0.647-0.128,1.596-0.363,2.803-0.568c1.205-0.228,2.662-0.53,4.328-0.802
		c1.653-0.295,3.519-0.628,5.553-0.992c1.007-0.181,2.057-0.369,3.143-0.563c1.074-0.214,2.185-0.435,3.327-0.662
		c0.568-0.11,1.145-0.221,1.728-0.333c0.577-0.132,1.162-0.267,1.752-0.402c1.173-0.299,2.396-0.476,3.598-0.821
		c1.205-0.332,2.433-0.635,3.674-0.94c1.23-0.343,2.453-0.758,3.703-1.104c0.619-0.193,1.256-0.34,1.866-0.572
		c0.611-0.228,1.225-0.449,1.844-0.659c1.226-0.453,2.501-0.793,3.687-1.354c1.213-0.493,2.427-0.986,3.635-1.478
		c1.186-0.539,2.348-1.119,3.518-1.664c0.584-0.276,1.165-0.551,1.744-0.825c0.567-0.294,1.118-0.614,1.674-0.917
		c1.109-0.612,2.203-1.226,3.304-1.796c1.066-0.626,2.062-1.326,3.093-1.937c1.004-0.648,2.058-1.196,2.968-1.889
		c0.939-0.663,1.854-1.309,2.737-1.933c0.883-0.631,1.806-1.171,2.572-1.831c1.586-1.258,3.075-2.402,4.424-3.406
		c1.318-1.033,2.409-2.011,3.361-2.775c0.926-0.788,1.715-1.367,2.229-1.783c0.533-0.403,0.817-0.619,0.817-0.619
		s-0.159,0.314-0.456,0.904c-0.316,0.577-0.746,1.455-1.371,2.521c-0.631,1.06-1.318,2.428-2.305,3.845
		c-1.008,1.398-2.18,2.965-3.495,4.664c-1.345,1.669-3.008,3.295-4.717,5.089c-0.218,0.22-0.427,0.453-0.657,0.666l-0.719,0.613
		c-0.483,0.412-0.973,0.829-1.468,1.25c-0.991,0.845-2.018,1.697-3.088,2.53c-1.106,0.783-2.257,1.545-3.42,2.325
		c-0.583,0.386-1.164,0.789-1.762,1.167c-0.623,0.337-1.248,0.676-1.876,1.016c-1.265,0.664-2.51,1.404-3.826,2.004
		c-1.331,0.567-2.667,1.136-4.004,1.706c-1.33,0.592-2.739,0.955-4.102,1.429c-1.368,0.464-2.747,0.872-4.137,1.174
		c-1.383,0.329-2.754,0.667-4.121,0.916c-1.371,0.222-2.723,0.44-4.057,0.62c-1.331,0.203-2.648,0.276-3.934,0.379
		c-1.286,0.101-2.54,0.196-3.764,0.184c-1.223,0.005-2.409,0.048-3.555,0.018c-1.143-0.052-2.248-0.102-3.308-0.15
		c-2.116-0.112-4.04-0.353-5.744-0.541c-1.7-0.229-3.178-0.486-4.39-0.69c-1.209-0.201-2.159-0.432-2.807-0.557
		C132.126,164.977,131.78,164.898,131.78,164.898z"/>
</g>
<g>
	<path d="M249.938,127.804c0,0,0.957,0.893,2.521,2.526c0.773,0.83,1.787,1.709,2.849,2.78c0.521,0.534,1.14,1.067,1.774,1.629
		c0.642,0.557,1.27,1.176,1.969,1.774c1.453,1.144,2.907,2.47,4.617,3.657c1.617,1.289,3.483,2.426,5.326,3.673
		c0.979,0.55,1.948,1.136,2.928,1.729c0.479,0.313,1.01,0.551,1.525,0.816c0.514,0.27,1.028,0.541,1.546,0.813
		c0.521,0.265,1.022,0.568,1.563,0.805c0.543,0.234,1.084,0.475,1.62,0.728c1.083,0.483,2.132,1.044,3.269,1.43
		c1.109,0.447,2.218,0.893,3.323,1.338c1.133,0.389,2.261,0.776,3.381,1.16c2.226,0.815,4.52,1.366,6.688,2.085
		c1.107,0.287,2.205,0.542,3.271,0.845c1.07,0.289,2.113,0.599,3.153,0.813c1.037,0.244,2.046,0.48,3.021,0.71
		c0.978,0.243,1.921,0.499,2.843,0.67c1.835,0.385,3.526,0.767,5.032,1.135c1.509,0.341,2.836,0.589,3.931,0.854
		c2.19,0.513,3.458,0.883,3.458,0.883s-1.261,0.313-3.495,0.724c-1.118,0.195-2.479,0.447-4.049,0.626
		c-1.568,0.148-3.346,0.282-5.295,0.395c-1.947,0.108-4.058,0.01-6.303-0.036c-2.242-0.079-4.598-0.403-7.044-0.681
		c-1.218-0.195-2.446-0.457-3.695-0.701c-0.624-0.125-1.253-0.25-1.885-0.376c-0.627-0.148-1.248-0.346-1.877-0.519
		c-1.252-0.366-2.528-0.701-3.785-1.113c-1.241-0.474-2.487-0.949-3.733-1.424c-1.251-0.459-2.435-1.106-3.64-1.673
		c-1.209-0.566-2.381-1.189-3.502-1.897c-1.127-0.693-2.27-1.332-3.314-2.104c-1.047-0.767-2.079-1.525-3.069-2.296
		c-1.909-1.645-3.735-3.245-5.241-4.986c-1.595-1.648-2.838-3.438-4.021-5.021c-1.068-1.686-2.043-3.191-2.768-4.642
		c-0.702-1.457-1.352-2.697-1.729-3.758C250.321,129.056,249.938,127.804,249.938,127.804z"/>
</g>
<polygon fill="#FFFFFF" points="277,213.814 277,193.161 297.037,203.203 "/>
<path fill="#FF0404" stroke="#000000" stroke-width="4" stroke-miterlimit="10" d="M355.025,275.111
	c3.144,13.556-11.235,23.444-25.121,23.444c-16.235,0.777-20.235-12.223-38.584-18.303c5.638-6.152,10.445-13.256,13.957-18.309
	C319.043,256.811,350.836,252,355.025,275.111z"/>
<g>
	<path fill="none" stroke="#000000" stroke-width="4" stroke-miterlimit="10" d="M199.787,298.571
		c32.97,29.51,74.38,9.688,105.491-36.627c17.562-7.851,47.001-4.906,49.748,12.167c2.16,16.924-9.224,22.766-25.121,24.444
		c-17.073,0.439-15.934-8.663-39.316-18.618"/>
	<g>
		<path d="M297.568,269.487c0,0,0.531,0.203,1.462,0.559c0.465,0.178,1.029,0.394,1.677,0.641c0.637,0.216,1.354,0.459,2.139,0.725
			c0.778,0.28,1.646,0.538,2.571,0.801c0.926,0.257,1.89,0.58,2.917,0.808c1.022,0.249,2.08,0.506,3.155,0.767
			c1.088,0.217,2.192,0.438,3.298,0.658c1.104,0.24,2.225,0.391,3.323,0.572c1.101,0.167,2.182,0.365,3.236,0.497
			c1.056,0.131,2.075,0.257,3.043,0.377c0.969,0.111,1.884,0.253,2.733,0.318c3.397,0.316,5.663,0.527,5.663,0.527
			s-2.277,0.039-5.694,0.097c-0.855,0.028-1.781-0.012-2.762-0.017c-0.981-0.013-2.017-0.027-3.087-0.041
			c-1.072-0.017-2.177-0.095-3.304-0.142c-1.125-0.06-2.272-0.088-3.415-0.207c-1.145-0.1-2.29-0.2-3.418-0.298
			c-1.126-0.146-2.233-0.289-3.306-0.427c-1.078-0.119-2.104-0.339-3.087-0.5c-0.981-0.165-1.91-0.333-2.767-0.538
			c-0.859-0.19-1.647-0.364-2.346-0.52c-0.672-0.175-1.257-0.327-1.739-0.453c-0.964-0.251-1.515-0.396-1.515-0.396L297.568,269.487
			z"/>
	</g>
</g>
</svg>
